<?xml version="1.0" standalone="yes"?>
<svg xmlns="http://www.w3.org/2000/svg" width="512" height="512">
<path style="fill:#030303; stroke:none;" d="M213 170L294 170C285.798 180.884 274.245 190.898 268 203L302 203C306.767 203 313.418 204.176 317.91 202.397C323.049 200.362 327.18 193.142 330.576 189C335.505 182.987 343.219 176.249 346.142 169C347.502 165.627 347 161.559 347 158L347 137L271 137L250 137C246.832 137 242.985 136.473 240.09 138.028C236.268 140.08 233.472 144.737 230.753 148C224.757 155.196 218.17 162.184 213 170z"/>
<path style="fill:#ff0101; stroke:none;" d="M0 203L0 235C0 238.151 -1.21631 244.739 1.6034 246.972C5.43866 250.01 16.2946 248 21 248L73 248L183 248L215 248C219.439 248 225.657 249.1 229.83 247.397C234.667 245.422 238.231 238.896 241.424 235C249.767 224.822 260.959 214.707 267 203L0 203M281 248L450 248L494 248C498.125 248 507 249.662 510.397 246.972C513.216 244.739 512 238.151 512 235L512 203L376 203L336 203C330.692 203 323.081 201.624 318.09 203.603C313.302 205.502 309.584 212.145 306.424 216C298.125 226.126 287.003 236.367 281 248z"/>
<path style="fill:#acacac; stroke:none;" d="M0 247L1 248L0 247M511 247L512 248L511 247z"/>
<path style="fill:#030303; stroke:none;" d="M203 281L237 281C241.762 281 248.365 282.153 252.829 280.258C256.672 278.627 259.342 274.093 261.92 271C267.998 263.707 275.638 256.454 280 248L247 248C242.14 248 235.614 246.883 231.004 248.603C226.813 250.167 223.996 254.701 221.247 258C215.073 265.407 207.829 272.636 203 281z"/>
<path style="fill:#acacac; stroke:none;" d="M253 280L254 281L253 280z"/>
<path style="fill:#ff7bd3; stroke:none;" d="M4 281C15.7807 341.748 47.5578 398.039 97 436.113C108.069 444.637 119.627 452.691 132 459.219C136.889 461.799 142.379 465.66 148 465L149 469C143.493 471.683 139.953 477.365 136.08 482C128.319 491.289 117.094 501.011 112 512L391 512C383.504 496.155 369.225 483.449 363 467C380.63 461.921 397.526 449.25 412 438.373C463.008 400.042 495.943 343.173 508 281L328 281L276 281C269.507 281 259.32 279.067 253.286 281.603C248.506 283.613 244.802 290.136 241.586 294C233.192 304.086 222.022 314.329 216 326L347 326C347 337.321 347.795 348.847 345.551 360C340.345 385.873 323.53 408.144 301 421.547C246.326 454.073 169.525 415.402 165.09 351C164.62 344.18 163.278 333.399 165.858 327C167.674 322.498 171.851 318.678 174.92 315C183.628 304.563 196.338 293.361 202 281L4 281z"/>
<path style="fill:#acacac; stroke:none;" d="M4 283L5 284L4 283M507 283L508 284L507 283M5 288L6 289L5 288M506 288L507 289L506 288z"/>
<path style="fill:#030303; stroke:none;" d="M6 292L7 293L6 292M505 292L506 293L505 292z"/>
<path style="fill:#acacac; stroke:none;" d="M7 297L8 298L7 297M504 297L505 298L504 297M9 304L10 305L9 304M502 304L503 305L502 304M10 308L11 309L10 308M501 308L502 309L501 308z"/>
<path style="fill:#030303; stroke:none;" d="M12 314L13 315L12 314M499 314L500 315L499 314z"/>
<path style="fill:#acacac; stroke:none;" d="M13 317L14 318L13 317M498 317L499 318L498 317M14 320L15 321L14 320M497 320L498 321L497 320M15 323L16 324L15 323M496 323L497 324L496 323M16 326L17 327L16 326M495 326L496 327L495 326M19 333L20 334L19 333M492 333L493 334L492 333M21 338L22 339L21 338M490 338L491 339L490 338M31 358L32 359L31 358M480 358L481 359L480 358z"/>
<path style="fill:#ff7bd3; stroke:none;" d="M201 359C202.279 366.431 206.19 373.21 210.934 378.996C233.892 406.996 278.108 406.995 301.066 378.996C305.81 373.21 309.721 366.431 311 359L201 359z"/>
<path style="fill:#acacac; stroke:none;" d="M32 360L33 361L32 360M479 360L480 361L479 360z"/>
<path style="fill:#030303; stroke:none;" d="M35 365L36 366L35 365M476 365L477 366L476 365z"/>
<path style="fill:#acacac; stroke:none;" d="M36 367L37 368L36 367M475 367L476 368L475 367M38 370L39 371L38 370M473 370L474 371L473 370z"/>
<path style="fill:#030303; stroke:none;" d="M40 373L41 374L40 373M471 373L472 374L471 373M46 382L47 383L46 382M465 382L466 383L465 382z"/>
<path style="fill:#acacac; stroke:none;" d="M51 389L52 390L51 389M460 389L461 390L460 389M54 393L55 394L54 393M457 393L458 394L457 393z"/>
<path style="fill:#030303; stroke:none;" d="M55 394L56 395L55 394M456 394L457 395L456 394z"/>
<path style="fill:#acacac; stroke:none;" d="M59 399L60 400L59 399M452 399L453 400L452 399z"/>
<path style="fill:#030303; stroke:none;" d="M60 400L61 401L60 400M451 400L452 401L451 400z"/>
<path style="fill:#acacac; stroke:none;" d="M66 407L67 408L66 407M445 407L446 408L445 407M67 408L68 409L67 408M444 408L445 409L444 408M68 409L69 410L68 409M443 409L444 410L443 409z"/>
<path style="fill:#030303; stroke:none;" d="M69 410L70 411L69 410M442 410L443 411L442 410M80 421L81 422L80 421M431 421L432 422L431 421z"/>
<path style="fill:#acacac; stroke:none;" d="M81 422L82 423L81 422M430 422L431 423L430 422M82 423L83 424L82 423M429 423L430 424L429 423M90 430L91 431L90 430M421 430L422 431L421 430M96 435L97 436L96 435M415 435L416 436L415 435M100 438L101 439L100 438M411 438L412 439L411 438M104 441L105 442L104 441M407 441L408 442L407 441M108 444L109 445L108 444M403 444L404 445L403 444M111 446L112 447L111 446M400 446L401 447L400 446M114 448L115 449L114 448M397 448L398 449L397 448M117 450L118 451L117 450M394 450L395 451L394 450M127 456L128 457L127 456M384 456L385 457L384 456M134 460L135 461L134 460M377 460L378 461L377 460M136 461L137 462L136 461M375 461L376 462L375 461M138 462L139 463L138 462M373 462L374 463L373 462M140 463L141 464L140 463M371 463L372 464L371 463M142 464L143 465L142 464M369 464L370 465L369 464M144 465L145 466L144 465M147 465L148 466L147 465M367 465L368 466L367 465M365 466L366 467L365 466M148 467L149 468L148 467M363 467L364 468L363 467M146 469L147 470L146 469M363 469L364 470L363 469M365 472L366 473L365 472z"/>
<path style="fill:#030303; stroke:none;" d="M143 473L144 474L143 473z"/>
<path style="fill:#acacac; stroke:none;" d="M142 474L143 475L142 474M141 475L142 476L141 475M367 475L368 476L367 475M140 476L141 477L140 476z"/>
<path style="fill:#030303; stroke:none;" d="M368 477L369 478L368 477z"/>
<path style="fill:#acacac; stroke:none;" d="M369 478L370 479L369 478z"/>
<path style="fill:#030303; stroke:none;" d="M138 479L139 480L138 479z"/>
<path style="fill:#acacac; stroke:none;" d="M137 480L138 481L137 480z"/>
<path style="fill:#030303; stroke:none;" d="M370 480L371 481L370 480z"/>
<path style="fill:#acacac; stroke:none;" d="M136 481L137 482L136 481M371 481L372 482L371 481M135 482L136 483L135 482z"/>
<path style="fill:#030303; stroke:none;" d="M372 483L373 484L372 483z"/>
<path style="fill:#acacac; stroke:none;" d="M373 484L374 485L373 484z"/>
<path style="fill:#030303; stroke:none;" d="M133 485L134 486L133 485M132 486L133 487L132 486M374 486L375 487L374 486z"/>
<path style="fill:#acacac; stroke:none;" d="M131 487L132 488L131 487M375 487L376 488L375 487M130 488L131 489L130 488z"/>
<path style="fill:#030303; stroke:none;" d="M376 489L377 490L376 489z"/>
<path style="fill:#acacac; stroke:none;" d="M377 490L378 491L377 490z"/>
<path style="fill:#030303; stroke:none;" d="M127 492L128 493L127 492z"/>
<path style="fill:#acacac; stroke:none;" d="M378 492L379 493L378 492M126 493L127 494L126 493M379 493L380 494L379 493M125 494L126 495L125 494M124 495L125 496L124 495M380 495L381 496L380 495M381 496L382 497L381 496z"/>
<path style="fill:#030303; stroke:none;" d="M122 498L123 499L122 498z"/>
<path style="fill:#acacac; stroke:none;" d="M382 498L383 499L382 498z"/>
<path style="fill:#030303; stroke:none;" d="M121 499L122 500L121 499z"/>
<path style="fill:#acacac; stroke:none;" d="M383 499L384 500L383 499M120 500L121 501L120 500M119 501L120 502L119 501M384 501L385 502L384 501M385 502L386 503L385 502z"/>
<path style="fill:#030303; stroke:none;" d="M117 504L118 505L117 504z"/>
<path style="fill:#acacac; stroke:none;" d="M386 504L387 505L386 504z"/>
<path style="fill:#030303; stroke:none;" d="M116 505L117 506L116 505z"/>
<path style="fill:#acacac; stroke:none;" d="M115 506L116 507L115 506M114 507L115 508L114 507M388 507L389 508L388 507M390 510L391 511L390 510M111 511L112 512L111 511z"/>
</svg>
